<?xml version="1.0" encoding="utf-8"?>
<!-- Generator: Adobe Illustrator 28.2.0, SVG Export Plug-In . SVG Version: 6.00 Build 0)  -->
<svg version="1.1" id="Layer_1" xmlns="http://www.w3.org/2000/svg" xmlns:xlink="http://www.w3.org/1999/xlink" x="0px" y="0px"
	 viewBox="0 0 711.9 227" style="enable-background:new 0 0 711.9 227;" xml:space="preserve">
<style type="text/css">
	.st0{fill:#CBA142;}
	.st1{fill:#FFFFFF;}
</style>
<g>
	<path class="st0" d="M84.4,194.7c14.2,1.4,27.4-1.7,39.5-9c21.5-13.1,32.5-33.3,38.6-57.5c-3.5,1.1-5.4,3.5-7.6,5.3
		c-6,4.9-12.6,7.6-20.4,6.7c-1.4-0.2-3-0.1-3.6-1.6c-0.7-1.7,1.1-2.3,2.1-3c3.1-2.3,5.3-5.3,7.2-8.5c1.4-2.3,2.8-4.7,4.3-7
		c2.9-4.3,6.6-7.5,12.9-7.7c-5.7-5.6-11.7-6.5-18.2-5.7c-3.5,0.4-6.8,1.6-9.8,3.4c-0.6,0.4-1.3,1-2,0.5c-0.8-0.5-0.3-1.3-0.1-2
		c3.3-8.7,9.1-14.8,18.4-16.3c10.1-1.7,18.8,1.3,24.9,10c2.1,2.9,2.9,6.3,2.7,9.9c-0.1,1.8,0.3,2.9,2.6,1.9
		c19.1-8.8,31,5.9,33.9,20.5c1.1,5.7,1.2,11.4-0.7,17c-0.4,1.1-0.5,2.4-2.3,3.6c-0.7-5.3-1.3-10.5-4.1-14.9
		c-2.8-4.5-6.5-8.1-11.6-10.9c-0.3,3.9,0.6,7.2,0.1,10.6c-1,7.6-4.6,13.6-10.2,18.6c-0.6,0.6-1.3,1.4-2.3,0.8
		c-0.7-0.5-0.4-1.4-0.3-2.1c0.7-5.9-1.1-11.1-4.2-16c-2.2-3.5-4.5-6.9-5.6-11.4c-1.3,1.5-1.4,2.9-1.7,4.3
		c-5.8,20.9-15.6,39.5-32.5,53.5c-20.8,17.2-44.6,19.7-69.9,12.7c-8.2-2.3-16-5.6-23.6-9.4c-1.1-0.5-2.3-1-3.1-2.3
		c1.4-0.9,2.7-0.4,4-0.3c13.4,1.2,26.4,0.2,39-4.7c22.5-8.8,34.9-29.3,31.1-55.6c-2.4-16.6-10.7-30.2-22.8-41.5
		c-2.8-2.6-3.2-2.5-4.1,1.1c-0.7,2.9-2,5.4-3.7,7.7c-5.8,7.9-6.3,16.5-3.9,25.7c0.4,1.4,1.2,2.7,0.7,4.7c-9-3-16.5-7.7-21.4-15.9
		c-5-8.3-5.4-17.2-2.7-27c-8.8,4.2-14.5,10.3-17.1,19c-2.6,8.6-0.8,17,2.3,25.2c-0.6,0.1-1,0.2-1.1,0.1
		c-10.8-10.9-19.3-29.6-12.8-47.3c4.6-12.5,15.8-21,27.9-20.7c3.7,0.1,7.1,1.1,10.4,2.8c0.8,0.4,1.6,1.2,3,0.7
		c-0.6-2.9-1.4-5.8-1.6-8.7c-0.8-12.1,5.5-21.6,17.8-27.2c19.8-8.9,45.4-2.1,58.2,15.3c0.5,0.7,1.2,1.3,1.1,2.9
		c-20.4-6.3-39.9-6.7-57.4,9.7c5.1-1,9.3-0.9,13.5-0.9c7.3,0,13.5,2.5,18,8.4c5.3,6.9,11.9,12,20.3,14.7c0.7,0.2,1.7,0.2,1.7,1.1
		c0,1.2-1.2,1.5-2.1,1.9c-14.6,7-29.1,7.3-43.2-1.3c-0.6-0.4-1.3-0.7-2.2-1.1c-0.6,2.3,1.3,3,2.3,3.9c9.4,8.8,17.1,18.9,22.1,30.8
		c11.7,27.5,3,60.1-20.1,76C91.9,190.7,88,192.4,84.4,194.7z"/>
	<path class="st1" d="M571.4,118.7c15,5.7,20,20.6,16.7,31.8c-3,10.3-12.5,17.6-24.5,18.1c-9.9,0.4-19.7,0.2-29.6,0.2
		c-1.2,0-2.8,0.2-2.9-1.5c-0.1-1.8,1.6-1.8,2.7-1.9c3.5-0.2,4.5-2.3,4.9-5.4c0.4-2.6,0.6-5.2,0.6-7.8c0-20,0-39.9-0.1-59.9
		c0-6.2-0.9-6.9-7.1-7.6c-1.1-0.1-2.5,0-2.5-1.5c0-1.9,1.7-1.5,2.8-1.5c8.7,0,17.5-0.1,26.2,0c8.7,0.1,16.4,2.6,20.3,11.2
		c3.5,7.7,1,17.7-5.7,24.3C572.7,117.7,572.1,118.1,571.4,118.7z M549.7,140.6C549.7,140.6,549.8,140.6,549.7,140.6
		c0,5.1,0,10.2,0,15.4c0,3.2,1.3,5.6,4.5,6.5c4.6,1.3,9.4,1.6,14,0.1c5-1.6,8.2-5.2,9.2-10.4c3.2-16.7-8.6-30-25.4-29.2
		c-1.8,0.1-2.4,0.5-2.3,2.3C549.8,130.4,549.7,135.5,549.7,140.6z M549,102.3c0,2.4,0,4.7,0,7.1c0,9.3,0,9.3,9.4,9.1
		c5.9-0.1,8.2-1.8,10.3-7.3c2-5.4,1.4-10.8-0.7-16c-2.8-6.8-8.7-10-15.9-8.8c-2.1,0.3-3.2,1.1-3.1,3.6C549.2,94,549,98.2,549,102.3z
		"/>
	<path class="st1" d="M401.1,121.8c-1,10.7-1.9,21.3-3,32c-0.3,3,0.4,4.9,3.9,4.7c1-0.1,2.3,0,2.2,1.4c-0.1,1.2-1.4,1.3-2.4,1.3
		c-5.1,0-10.2,0-15.4,0c-1,0-2.2,0-2.2-1.4c0.1-1.3,1.3-1.4,2.3-1.4c2.9,0,3.8-1.8,4.1-4.3c2-16.7,4.1-33.4,6.1-50.1
		c0.2-1.3,0-3,1.6-3.5c1.9-0.5,2.5,1.2,3.2,2.5c8,14.9,16,29.8,24,44.9c1.6-1,2-2.6,2.7-3.9c6.8-13.2,13.5-26.3,20.3-39.5
		c0.2-0.4,0.4-0.9,0.7-1.3c0.8-1.1,1-3.2,3-2.7c1.5,0.4,1.5,2.1,1.7,3.5c2,16.1,4,32.1,6,48.2c0.4,3.2,0.2,6.7,5,6.7
		c0.9,0,1.6,0.9,1.4,1.8c-0.2,0.7-0.9,1.1-1.8,1.1c-5.2,0-10.5,0-15.7,0c-0.8,0-1.6-0.1-1.8-0.9c-0.2-1.1,0.6-1.8,1.5-1.8
		c3.2,0,2.7-2.1,2.5-4.1c-1.1-11.2-2.2-22.5-4.1-34c-2.4,4.6-4.9,9.2-7.3,13.9c-3.9,7.5-7.8,15-11.8,22.5c-0.7,1.4-1.1,3.4-3,3.4
		c-1.9,0-2.4-1.9-3.2-3.3c-6.4-11.1-12.6-22.3-18.4-33.8c-0.4-0.7-0.7-1.5-1.1-2.2C401.6,121.7,401.3,121.7,401.1,121.8z"/>
	<path class="st1" d="M244.4,125.1c0,11.2,0,22.5,0,33.7c0,5.3,0.3,5.6,5.7,6.1c1.7,0.1,3.3,0.5,3.1,2.4c-0.1,1.8-1.9,1.2-3,1.2
		c-7.1,0-14.2,0-21.4,0c-1.4,0-3.2,0.2-3.3-1.6c-0.1-1.8,1.6-1.8,3-1.9c4.9-0.5,5.5-1,5.5-6c0-21.8,0-43.7-0.1-65.5
		c0-7.2-0.5-7.6-7.6-8.8c-0.9-0.2-1.8-0.3-1.8-1.4c0-0.9,0.7-1.6,1.7-1.6c0.7,0,1.5-0.1,2.2,0c10.7,0.2,21.5-0.8,32.2,0.5
		c12.2,1.6,19,7.6,20.5,17.5c1.6,10.7-4.5,22.2-14.3,27c-5.1,2.5-10.4,3.3-16,3c-1.2-0.1-2.4-0.1-2.5-1.6c-0.1-1.7,1.3-1.5,2.4-1.6
		c2.5-0.1,5-0.3,7.4-1.1c12.2-3.9,16.6-18.1,9.3-29.9c-4.5-7.2-12-10.3-20.7-8.7c-2.7,0.5-2.3,2.2-2.3,3.8
		C244.4,102.1,244.4,113.6,244.4,125.1z"/>
	<path class="st1" d="M613.1,161.2c-4.7,0-9.5,0-14.2,0c-1,0-2.5,0.4-2.7-1.2c-0.2-1.4,1.1-1.6,2-1.7c2.7-0.3,3.1-2.4,3.1-4.4
		c0.1-14.9,0-29.7-0.1-44.6c0-2.7-0.4-5.4-4.3-5.2c-0.9,0.1-1.8-0.4-1.7-1.5c0.1-1,0.9-1.5,1.9-1.4c2.4,0,4.7,0.3,7.1,0.2
		c8.1-0.4,16.2,1.1,24.3-0.2c1.3-0.2,2.3,0.1,2.1,1.7c-0.4,2.7-0.8,5.4-1.3,8.1c-0.1,0.8-0.5,1.4-1.4,1.4c-1,0-1.3-0.8-1.3-1.5
		c0.3-4.1-2.8-4.2-5.5-4.3c-3.5-0.2-7.9-1.3-10.1,0.3c-2.1,1.6-0.5,6.3-0.6,9.6c-0.1,1.1,0,2.2,0,3.4c0,7.3,0,7.5,7.2,7
		c3.3-0.2,6.8,0.5,9.7-1.9c1.3-1.1,2.1-0.1,2,1.3c-0.2,3.2-1.1,6.4-0.9,9.7c0.1,0.8-0.5,1.4-1.4,1.4c-0.9,0-1.5-0.6-1.4-1.4
		c0.2-3.5-2.4-3.6-4.8-3.9c-10.5-1.1-10.5-1.1-10.5,9.6c0,3.1-0.1,6.2,0,9.4c0.1,4.3,1.3,5.5,5.7,5.6c2.4,0.1,4.7,0,7.1,0
		c3.3,0,5.8-1.2,6.5-4.8c0.2-0.9,0.2-2.2,1.7-1.9c1.4,0.3,1.1,1.4,1,2.4c0,0.2,0,0.5,0,0.7c-0.5,8-0.8,8.3-8.8,8.3
		C620.1,161.2,616.6,161.2,613.1,161.2z"/>
	<path class="st1" d="M326.5,161.2c-2.6,0-5.2,0-7.9,0c-0.8,0-1.9,0.1-2.1-1c-0.2-1.2,0.7-1.5,1.6-1.6c2.1-0.3,1.5-1.4,1-2.6
		c-1.9-4.6-3.8-9.2-5.6-13.8c-0.6-1.4-1.2-2.2-2.9-2.1c-4.7,0.1-9.5,0.1-14.2,0c-1.4,0-2.3,0.3-2.8,1.8c-1.6,4.5-3.2,8.9-4.8,13.3
		c-0.7,2-0.9,3.8,2,3.8c0.9,0,1.8,0.3,1.7,1.5c-0.1,0.9-0.9,1.1-1.7,1.1c-5,0-10,0-15,0c-0.9,0-1.9-0.3-1.8-1.4
		c0.1-0.8,0.7-1.2,1.6-1.2c4.2,0.1,5.7-3.1,7-6.2c5.2-13.1,10.2-26.2,15.3-39.3c1.2-3.1,2.4-6.3,3.7-9.4c0.5-1.2,0.7-3,2.4-3
		c1.9-0.1,2.2,1.8,2.8,3.1c5.8,14,11.6,28.1,17.4,42.1c1,2.4,2,4.8,3.1,7.2c1.5,3.2,3.5,5.8,7.4,5.9c0.8,0,1.7,0.2,1.8,1
		c0,1.3-1.2,1-2,1C331.7,161.3,329.1,161.2,326.5,161.2z M310.7,134.7c-2.5-6.6-4.9-12.9-7.7-20.1c-2.6,7.3-4.9,13.6-7.2,20.1
		C301,134.7,305.6,134.7,310.7,134.7z"/>
	<path class="st1" d="M471.7,152.3c0-0.8,0-2.5,0.2-4.3c0.1-0.8,0.5-1.8,1.6-1.7c0.7,0.1,1,0.9,1.2,1.7c1.9,8.5,11.4,12.4,18.8,7.8
		c4.9-3,5.8-9.3,2.1-14c-2.4-2.9-5.5-5-8.4-7.4c-2.6-2.1-5.3-4.1-7.8-6.4c-5.5-5-8.2-11-5.4-18.4c2.8-7.3,9.1-9.4,16.2-10
		c4.3-0.3,8.4,0.9,12.6,1.3c1.4,0.1,1.6,0.9,1.6,2c-0.1,2.7-0.3,5.5-0.4,8.2c0,0.8-0.2,1.6-1.1,1.8c-1.2,0.2-1.3-0.8-1.6-1.6
		c-2.5-6.9-12.2-9.5-18-4.9c-3.4,2.7-3.5,7.8-0.2,11.7c2.5,3,5.8,5,9,7.3c3.2,2.2,6.2,4.5,8.9,7.4c4.8,5,6.7,10.8,4.5,17.5
		c-2.2,6.5-7.2,10-13.7,11.3c-4.4,0.9-8.9,0.7-13.4-0.1C471.7,160.2,471.7,160.1,471.7,152.3z"/>
	<path class="st1" d="M666.1,131.2c0,7.1,0,14.2,0,21.3c0,3,0.2,5.9,4.5,5.6c1-0.1,1.8,0.5,1.8,1.5c0,1.4-1.1,1.4-2.1,1.4
		c-5.6,0-11.2,0-16.9,0c-0.9,0-1.8-0.1-2-1.2c-0.1-1.1,0.7-1.6,1.7-1.6c4.1-0.1,4.6-2.6,4.6-6c-0.2-13.9-0.2-27.7,0-41.6
		c0-3-0.8-3.9-3.7-3.6c-2.6,0.2-5.2,0.1-7.9,0c-3.3,0-6.3,0.2-7.4,4.2c-0.2,0.9-1,1.5-2,1.2c-1.2-0.4-0.8-1.4-0.8-2.2
		c0-0.2,0-0.5,0.1-0.7c0.6-2.5,0.6-5.5,1.9-7.5c1.7-2.5,4.4,0.1,6.7,0.1c11.4-0.2,22.7-0.1,34.1-0.1c0.9,0,1.8-0.2,2.6-0.1
		c1.7,0.2,3.7-2.3,5,0.1c1.5,2.9,2.4,6.1,2,9.4c-0.2,1.7-2,1.1-2.4,0c-2-5.2-6.4-4.7-10.7-4.8c-2.2,0-4.5,0.1-6.7,0
		c-2-0.1-2.5,0.7-2.5,2.6C666.1,116.5,666.1,123.8,666.1,131.2z"/>
	<path class="st1" d="M359.3,161.2c-5.2,0-10.5,0-15.7,0c-1.1,0-2.6,0.1-2.7-1.3c-0.1-1.2,1.2-1.5,2.2-1.6c2.2-0.1,2.6-1.7,2.7-3.4
		c0.6-15.7,0.7-31.4,0-47.1c-0.1-2.5-1.2-3.9-3.9-3.9c-0.9,0-2.2,0-2.1-1.5c0.1-1.4,1.2-1.4,2.2-1.4c5.4,0,10.7,0,16.1,0
		c1,0,2.1-0.1,2.2,1.3c0.1,1.4-1,1.7-2,1.6c-3.2-0.2-3.8,1.8-3.8,4.2c0.1,14.1-0.3,28.2,0.3,42.3c0.1,3.4,1.6,5.3,5.2,5.5
		c3.2,0.1,6.4,0.5,9.7,0.3c3.9-0.3,6.4-1.8,7.3-5.7c0.3-1.1,0.7-2.5,2.1-2c1.2,0.4,1.3,1.7,1,2.9c0,0.1-0.1,0.2-0.1,0.4
		c-1.6,11.2-0.9,9.2-10.5,9.4C366.1,161.3,362.7,161.2,359.3,161.2z"/>
</g>
</svg>
